<svg xmlns="http://www.w3.org/2000/svg" viewBox="0 0 96 96" role="img" aria-label="Neuroanatomía">
  <defs>
    <linearGradient id="g" x1="18" x2="80" y1="12" y2="86" gradientUnits="userSpaceOnUse">
      <stop stop-color="#2f80ed"/>
      <stop offset=".55" stop-color="#1f9d83"/>
      <stop offset="1" stop-color="#e76f51"/>
    </linearGradient>
  </defs>
  <rect width="96" height="96" rx="20" fill="#f8fbff"/>
  <path d="M48 17c-13 0-23 9-23 22 0 7 3 13 8 17v17c0 4 3 7 7 7h16c4 0 7-3 7-7V56c5-4 8-10 8-17 0-13-10-22-23-22Z" fill="none" stroke="url(#g)" stroke-width="5" stroke-linejoin="round"/>
  <path d="M38 31c-5 2-8 7-8 13m28-13c5 2 8 7 8 13M38 44h20M41 57h14M41 68h14" fill="none" stroke="#263238" stroke-width="4" stroke-linecap="round"/>
  <path d="M48 20v60" fill="none" stroke="#263238" stroke-width="4" stroke-linecap="round" opacity=".38"/>
</svg>
